<?xml version="1.0" encoding="utf-8"?>
<svg viewBox="23.494 245.508 118.49 117.005" width="118.49" height="117.005" xmlns="http://www.w3.org/2000/svg">
  <g transform="matrix(1, 0, 0, 1, -17.038777, 174.974065)">
    <g class="cls-2" style="opacity: 0.4;">
      <path class="cls-1" d="M100.06,186.06c-31.42,0-56.98-25.56-56.98-56.98s25.56-56.98,56.98-56.98,56.98,25.56,56.98,56.98-25.56,56.98-56.98,56.98Zm0-106.56c-27.33,0-49.57,22.24-49.57,49.57s22.24,49.57,49.57,49.57,49.57-22.24,49.57-49.57-22.24-49.57-49.57-49.57Z" style="fill: rgb(28, 27, 41);"/>
      <path class="cls-1" d="M100.06,169.87c-22.5,0-40.8-18.3-40.8-40.8s18.3-40.8,40.8-40.8,40.8,18.3,40.8,40.8-18.3,40.8-40.8,40.8Zm0-74.19c-18.41,0-33.39,14.98-33.39,33.39s14.98,33.39,33.39,33.39,33.39-14.98,33.39-33.39-14.98-33.39-33.39-33.39Z" style="fill: rgb(28, 27, 41);"/>
      <path class="cls-1" d="M100.06,153.97c-13.73,0-24.9-11.17-24.9-24.9s11.17-24.9,24.9-24.9,24.9,11.17,24.9,24.9-11.17,24.9-24.9,24.9Zm0-42.38c-9.64,0-17.48,7.84-17.48,17.48s7.84,17.48,17.48,17.48,17.48-7.84,17.48-17.48-7.84-17.48-17.48-17.48Z" style="fill: rgb(28, 27, 41);"/>
    </g>
    <path class="cls-1" d="M149.48,125.37h-42.67c-1.31-2.38-3.84-4-6.75-4-4.25,0-7.7,3.45-7.7,7.7s3.45,7.7,7.7,7.7c2.91,0,5.44-1.62,6.75-4h10.33c-1.71,7.87-8.71,13.78-17.08,13.78-9.64,0-17.48-7.84-17.48-17.48h-7.41c0,13.72,11.17,24.89,24.9,24.89,12.47,0,22.82-9.21,24.62-21.19h8.56c-1.85,16.67-16.02,29.68-33.18,29.68-18.41,0-33.38-14.98-33.39-33.38h-7.41c0,22.49,18.3,40.79,40.8,40.79,21.25,0,38.74-16.33,40.62-37.09h8.8c-1.9,25.61-23.33,45.87-49.42,45.87s-49.57-22.24-49.57-49.57h-7.41c0,31.42,25.56,56.98,56.98,56.98s56.98-25.56,56.98-56.98c0-1.25-.05-2.49-.13-3.72h-7.43Z" style="fill: rgb(28, 27, 41);"/>
  </g>
</svg>