<svg width="18" height="18" viewBox="0 0 18 18" fill="none" xmlns="http://www.w3.org/2000/svg">
    <path d="M3 15.9999V14.4999C3 13.3953 3.89544 12.4999 5 12.4999H13C14.1046 12.4999 15 13.3953 15 14.4999V16.4999M3 17C1.89543 17 1 16.0574 1 14.8948V3.10527C1 1.94256 1.89543 1 3 1H15C16.1046 1 17 1.94256 17 3.10527V14.8948C17 16.0574 16.1046 17 15 17H3ZM11.5 6.49991C11.5 7.88059 10.3807 8.99993 8.99999 8.99993C7.61932 8.99993 6.50001 7.88059 6.50001 6.49991C6.50001 5.1192 7.61932 3.9999 8.99999 3.9999C10.3807 3.9999 11.5 5.1192 11.5 6.49991Z" stroke="#0D0D0D" stroke-linecap="round" stroke-linejoin="round"/>
</svg>