<?xml version="1.0" encoding="UTF-8"?><svg id="Layer_1" xmlns="http://www.w3.org/2000/svg" viewBox="0 0 500 500"><defs><style>.cls-1,.cls-2{fill:#a06dc1;}.cls-2{fill-rule:evenodd;}</style></defs><path class="cls-1" d="M446.86,108.97H174.93c-9.73,0-18.02,7.58-18.35,17.3-.35,10.21,7.8,18.57,17.93,18.57H446.86c9.91,0,17.94-8.03,17.94-17.94h0c0-9.91-8.03-17.94-17.94-17.94Z"/><path class="cls-1" d="M446.86,232.05H174.93c-9.73,0-18.02,7.58-18.35,17.3-.35,10.21,7.8,18.57,17.93,18.57H446.86c9.91,0,17.94-8.03,17.94-17.94h0c0-9.91-8.03-17.94-17.94-17.94Z"/><path class="cls-1" d="M446.86,355.17H174.93c-9.73,0-18.02,7.58-18.35,17.3-.35,10.21,7.8,18.57,17.93,18.57H446.86c9.91,0,17.94-8.03,17.94-17.94h0c0-9.91-8.03-17.94-17.94-17.94Z"/><g><path class="cls-2" d="M75.49,83.33c11.42,0,20.19,9.13,20.19,20.17s-8.76,20.19-20.19,20.19-20.55-9.14-20.55-20.19,9.13-20.17,20.55-20.17h0Z"/><path class="cls-2" d="M115.4,170.46c-.05-25.08-17.98-45.4-40.1-45.4s-40.05,20.32-40.1,45.4H115.4Z"/></g><g><path class="cls-2" d="M75.49,206.43c11.42,0,20.19,9.13,20.19,20.17s-8.76,20.19-20.19,20.19-20.55-9.14-20.55-20.19,9.13-20.17,20.55-20.17h0Z"/><path class="cls-2" d="M115.4,293.57c-.05-25.08-17.98-45.4-40.1-45.4s-40.05,20.32-40.1,45.4H115.4Z"/></g><g><path class="cls-2" d="M75.49,329.54c11.42,0,20.19,9.13,20.19,20.17s-8.76,20.19-20.19,20.19-20.55-9.14-20.55-20.19,9.13-20.17,20.55-20.17h0Z"/><path class="cls-2" d="M115.4,416.67c-.05-25.08-17.98-45.4-40.1-45.4s-40.05,20.32-40.1,45.4H115.4Z"/></g></svg>