<svg width="41" height="41" viewBox="0 0 41 41" fill="none" xmlns="http://www.w3.org/2000/svg">
<g filter="url(#filter0_i_61_42)">
<circle cx="20.5" cy="20.5" r="20.5" transform="matrix(-1 0 0 1 41 0)" fill="#F0F1F1"/>
</g>
<g clip-path="url(#clip0_61_42)">
<path d="M21 10C17.13 10 14 13.13 14 17C14 22.25 21 30 21 30C21 30 28 22.25 28 17C28 13.13 24.87 10 21 10ZM16 17C16 14.24 18.24 12 21 12C23.76 12 26 14.24 26 17C26 19.88 23.12 24.19 21 26.88C18.92 24.21 16 19.85 16 17Z" fill="#7F0DB5"/>
</g>
<defs>
<filter id="filter0_i_61_42" x="0" y="0" width="41" height="41" filterUnits="userSpaceOnUse" color-interpolation-filters="sRGB">
<feFlood flood-opacity="0" result="BackgroundImageFix"/>
<feBlend mode="normal" in="SourceGraphic" in2="BackgroundImageFix" result="shape"/>
<feColorMatrix in="SourceAlpha" type="matrix" values="0 0 0 0 0 0 0 0 0 0 0 0 0 0 0 0 0 0 127 0" result="hardAlpha"/>
<feMorphology radius="1" operator="erode" in="SourceAlpha" result="effect1_innerShadow_61_42"/>
<feOffset/>
<feComposite in2="hardAlpha" operator="arithmetic" k2="-1" k3="1"/>
<feColorMatrix type="matrix" values="0 0 0 0 0.446968 0 0 0 0 0.174896 0 0 0 0 0.575 0 0 0 1 0"/>
<feBlend mode="normal" in2="shape" result="effect1_innerShadow_61_42"/>
</filter>
<clipPath id="clip0_61_42">
<rect width="24" height="24" fill="white" transform="translate(9 8)"/>
</clipPath>
</defs>
</svg>
