<svg width="20" height="18" viewBox="0 0 20 18" fill="none" xmlns="http://www.w3.org/2000/svg">
    <path d="M0 9.00008L4.99949 12.9997V9.99998H13.9986V8.00018H4.99949V5.00049L0 9.00008Z" fill="#0D0D0D"/>
    <path d="M11.0001 0C8.59531 0 6.33554 0.936904 4.63672 2.63673L6.05057 4.05058C7.37244 2.72872 9.13026 1.99979 11.0001 1.99979C12.8699 1.99979 14.6277 2.72872 15.9496 4.05058C17.2714 5.37245 18.0003 7.13027 18.0003 9.00008C18.0003 10.8699 17.2714 12.6277 15.9496 13.9496C14.6277 15.2714 12.8699 16.0004 11.0001 16.0004C9.13026 16.0004 7.37244 15.2714 6.05057 13.9496L4.63672 15.3634C6.33554 17.0632 8.59531 18.0002 11.0001 18.0002C13.4048 18.0002 15.6646 17.0632 17.3634 15.3634C19.0632 13.6646 20.0001 11.4048 20.0001 9.00008C20.0001 6.59532 19.0632 4.33556 17.3634 2.63673C15.6646 0.936904 13.4048 0 11.0001 0Z" fill="#0D0D0D"/>
</svg>