<svg width="24" height="24" viewBox="0 0 24 24" fill="none" xmlns="http://www.w3.org/2000/svg">
    <path d="M12.2041 0C5.68914 0 0.408204 5.20047 0.408204 11.6144C0.408204 12.2939 0.467438 12.96 0.581171 13.6079C0.952136 15.721 1.24747 17.9237 0.559483 19.9558L0.0960665 21.3246C-0.367603 22.6935 0.923594 24.0115 2.32912 23.6032L4.4414 22.9917C6.27152 22.4619 8.21371 22.7083 10.0892 23.0435C10.7851 23.1679 11.4929 23.2306 12.2041 23.2297C18.7182 23.2297 24 18.0292 24 11.6144C24 5.20047 18.7173 0 12.2041 0ZM7.66631 9.82817C7.66631 9.59119 7.76191 9.36391 7.93208 9.19634C8.10224 9.02876 8.33304 8.93462 8.57369 8.93462H15.8327C16.0734 8.93462 16.3041 9.02876 16.4743 9.19634C16.6445 9.36391 16.7401 9.59119 16.7401 9.82817C16.7401 10.0652 16.6445 10.2924 16.4743 10.46C16.3041 10.6276 16.0734 10.7217 15.8327 10.7217H8.57369C8.33304 10.7217 8.10224 10.6276 7.93208 10.46C7.76191 10.2924 7.66631 10.0652 7.66631 9.82817ZM8.57369 12.5084C8.57369 12.5086 8.57389 12.5088 8.57413 12.5088H14.0179C14.1395 12.505 14.2605 12.5253 14.3739 12.5685C14.4873 12.6117 14.5907 12.6769 14.678 12.7602C14.7653 12.8435 14.8348 12.9432 14.8822 13.0535C14.9296 13.1637 14.954 13.2822 14.954 13.4019C14.954 13.5217 14.9296 13.6402 14.8822 13.7504C14.8348 13.8606 14.7653 13.9604 14.678 14.0437C14.5907 14.127 14.4873 14.1922 14.3739 14.2353C14.2605 14.2785 14.1395 14.2988 14.0179 14.295H8.57369C8.33304 14.295 8.10224 14.2009 7.93208 14.0333C7.76191 13.8657 7.66631 13.6385 7.66631 13.4015C7.66631 13.1645 7.76191 12.9372 7.93208 12.7696C8.10214 12.6022 8.33275 12.508 8.57324 12.5079C8.57349 12.5079 8.57369 12.5081 8.57369 12.5084V12.5084Z" fill="white"/>
</svg>