<?xml version="1.0" encoding="UTF-8"?><svg id="Layer_1" xmlns="http://www.w3.org/2000/svg" viewBox="0 0 500 500"><defs><style>.cls-1{fill:#fff;}.cls-2{fill:#a06dc1;}.cls-3{fill:#e22293;}</style></defs><circle class="cls-1" cx="250" cy="250" r="250"/><path class="cls-3" d="M293.51,422.22c-59.91,0-108.64-48.74-108.64-108.64,0-14.92,2.98-29.41,8.86-43.03,2.11-4.9,7.76-7.15,12.67-5.03,4.89,2.11,7.14,7.78,5.03,12.67-4.83,11.2-7.28,23.1-7.28,35.39,0,49.27,40.08,89.36,89.36,89.36,15.12,0,30.12-3.9,43.36-11.26,2.26-1.25,4.83-1.53,7.15-.89l44.11,5.96-9.97-48.06c-.75-2-.84-4.24-.1-6.39,3.18-9.37,4.8-19.03,4.8-28.71,0-48.19-37.69-87.41-85.81-89.28-5.32-.21-9.46-4.69-9.26-10.01,.21-5.32,4.93-9.74,10.01-9.26,58.51,2.27,104.34,49.95,104.34,108.55,0,10.82-1.65,21.61-4.92,32.1l12.56,60.48c.63,3.06-.25,6.24-2.39,8.53-2.13,2.28-5.24,3.4-8.34,2.98l-55.8-7.54c-15.36,7.92-32.48,12.09-49.75,12.09Z"/><path class="cls-3" d="M340.41,326.93h-91.89c-5.33,0-9.64-4.31-9.64-9.64s4.31-9.64,9.64-9.64h91.89c5.33,0,9.64,4.31,9.64,9.64s-4.31,9.64-9.64,9.64Z"/><path class="cls-2" d="M206.49,280.95c-17.27,0-34.39-4.17-49.75-12.09l-55.8,7.54c-3.14,.4-6.21-.71-8.34-2.98-2.14-2.29-3.02-5.47-2.39-8.53l12.56-60.48c-3.26-10.53-4.92-21.31-4.92-32.1,0-59.91,48.73-108.63,108.63-108.63s108.64,48.73,108.64,108.63-48.74,108.64-108.64,108.64Zm-48-31.75c1.58,0,3.17,.4,4.64,1.21,13.24,7.36,28.24,11.26,43.36,11.26,49.27,0,89.36-40.08,89.36-89.36s-40.08-89.35-89.36-89.35-89.35,40.08-89.35,89.35c0,9.64,1.62,19.3,4.81,28.72,.75,2.22,.65,4.56-.16,6.62l-9.92,47.82,44.3-5.99c.76-.19,1.53-.28,2.32-.28Z"/><path class="cls-2" d="M248.52,181.95h-91.88c-5.33,0-9.64-4.31-9.64-9.64s4.31-9.64,9.64-9.64h91.88c5.33,0,9.64,4.31,9.64,9.64s-4.31,9.64-9.64,9.64Z"/></svg>