<svg width="225" height="47" viewBox="0 0 225 47" fill="none" xmlns="http://www.w3.org/2000/svg">
<path d="M149.73 24.2696C160.512 33.2149 174.793 42.1316 198.418 46H198.41H198.164H197.916H197.668H197.418H197.169H196.918H196.667H196.415H196.162H195.909H195.655H195.4H195.145H194.888H194.632H194.374H194.116H193.857H193.598H193.338H193.077H192.816H192.554H192.291H192.028H191.765H191.5H191.235H190.97H190.704H190.437H190.17H189.902H189.633H189.364H189.095H188.825H188.554H188.283H188.012H187.74H187.467H187.194H186.92H186.646H186.371H186.096H185.821H185.545H185.268H184.991H184.714H184.436H184.158H183.879H183.6H183.32H183.04H182.76H182.479H182.198H181.916H181.634H181.352H181.069H180.786H180.502H180.218H179.934H179.65H179.365H179.079H178.794H178.508H178.222H177.935H177.648H177.361H177.074H176.786H176.498H176.21H175.921H175.633H175.344H175.054H174.765H174.475H174.185H173.895H173.604H173.313H173.022H172.731H172.44H172.148H171.857H171.565H171.273H170.98H170.688H170.396H170.103H169.81H169.517H169.224H168.93H168.637H168.344H168.05H167.756H167.462H167.168H166.874H166.58H166.286H165.992H165.697H165.403H165.109H164.814H164.52H164.225H163.93H163.636H163.341H163.046H162.752H162.457H162.163H161.868H161.573H161.279H160.984H160.689H160.395H160.1H159.806H159.512H159.217H158.923H158.629H158.335H158.041H157.747H157.453H157.16H156.866H156.573H156.279H155.986H155.693H155.4H155.107H154.815H154.522H154.23H153.938H153.646H153.354H153.062H152.771H152.479H152.188H151.898H151.607H151.317H151.026H150.737H150.447H150.157H149.868H149.579H149.291H149.002H148.714H148.426H148.139H147.851H147.564H147.278H146.991H146.705H146.42H146.134H145.849H145.564H145.28H144.996H144.712H144.429H144.146H143.863H143.581H143.299H143.018H142.737H142.456H142.176H141.896H141.617H141.338H141.059H140.781H140.504H140.226H139.95H139.673H139.398H139.122H138.847H138.573H138.299H138.026H137.753H137.481H137.209H136.937H136.666H136.396H136.126H135.857H135.589H135.32H135.053H134.786H134.52H134.254H133.988H133.724H133.46H133.196H132.933H132.671H132.41H132.149H131.888H131.629H131.369H131.111H130.853H130.596H130.34H130.084H129.829H129.574H129.321H129.068H128.815H128.564H128.313H128.063H127.813H127.564H127.316H127.069H126.823H126.577H126.332H126.088H125.844H125.601H125.36H125.118H124.878H124.639H124.4H124.162H123.925H123.689H123.453H123.219H122.985H122.752H122.52H122.289H122.058H121.829H121.6H121.373H121.146H120.92H120.695H120.471H120.248H120.025H119.804H119.584H119.364H119.146H118.928H118.711H118.496H118.281H118.067H117.854H117.643H117.432H117.222H117.013H116.805H116.599H116.393H116.188H115.984H115.782H115.58H115.379H115.18H114.981H114.784H114.588H114.392H114.198H114.005H113.813H113.622H113.432H113.244H113.056H112.87H112.684H112.5H112.331H112.161H111.989H111.816H111.642H111.467H111.291H111.113H110.934H110.754H110.573H110.39H110.207H110.022H109.836H109.649H109.46H109.271H109.08H108.888H108.695H108.501H108.306H108.11H107.913H107.714H107.514H107.314H107.112H106.909H106.705H106.5H106.294H106.087H105.879H105.67H105.46H105.248H105.036H104.823H104.608H104.393H104.177H103.959H103.741H103.522H103.302H103.08H102.858H102.635H102.411H102.186H101.96H101.733H101.505H101.277H101.047H100.816H100.585H100.353H100.119H99.8852H99.6502H99.4143H99.1776H98.94H98.7016H98.4623H98.2222H97.9813H97.7395H97.4969H97.2535H97.0093H96.7643H96.5185H96.272H96.0246H95.7765H95.5275H95.2779H95.0274H94.7763H94.5243H94.2717H94.0183H93.7642H93.5093H93.2538H92.9975H92.7406H92.4829H92.2245H91.9655H91.7058H91.4454H91.1844H90.9227H90.6604H90.3974H90.1338H89.8695H89.6046H89.3391H89.073H88.8062H88.5389H88.271H88.0025H87.7334H87.4637H87.1934H86.9226H86.6513H86.3793H86.1069H85.8339H85.5603H85.2863H85.0117H84.7366H84.461H84.1848H83.9082H83.6311H83.3535H83.0755H82.7969H82.5179H82.2385H81.9586H81.6782H81.3974H81.1162H80.8345H80.5524H80.2699H79.987H79.7037H79.42H79.1359H78.8514H78.5666H78.2813H77.9958H77.7098H77.4235H77.1368H76.8498H76.5625H76.2748H75.9868H75.6985H75.4099H75.121H74.8318H74.5423H74.2525H73.9624H73.6721H73.3815H73.0906H72.7995H72.5081H72.2165H71.9246H71.6326H71.3403H71.0477H70.755H70.4621H70.1689H69.8756H69.5821H69.2884H68.9945H68.7005H68.4063H68.112H67.8175H67.5228H67.2281H66.9332H66.6381H66.343H66.0477H65.7523H65.4569H65.1613H64.8657H64.57H64.2742H63.9783H63.6824H63.3864H63.0903H62.7943H62.4981H62.202H61.9058H61.6096H61.3134H61.0172H60.721H60.4248H60.1286H59.8325H59.5363H59.2402H58.9441H58.6481H58.3521H58.0562H57.7603H57.4645H57.1688H56.8732H56.5776H56.2822H55.9868H55.6915H55.3964H55.1014H54.8065H54.5117H54.2171H53.9226H53.6282H53.334H53.04H52.7461H52.4525H52.159H51.8656H51.5725H51.2796H50.9869H50.6943H50.4021H50.11H49.8181H49.5265H49.2352H48.944H48.6532H48.3626H48.0723H47.7822H47.4924H47.2029H46.9137H46.6248H46.3362H46.0479H45.7599H45.4723H45.185H44.898H44.6113H44.325H44.0391H43.7535H43.4683H43.1834H42.899H42.6149H42.3312H42.0479H41.765H41.4825H41.2004H40.9188H40.6376H40.3568H40.0764H39.7965H39.5171H39.2381H38.9596H38.6816H38.404H38.1269H37.8503H37.5742H37.2986H37.0235H36.749H36.4749H36.2014H35.9284H35.6559H35.384H35.1127H34.8419H34.5717H34.302H34.0329H33.7644H33.4965H33.2292H32.9625H32.6964H32.4309H32.166H31.9018H31.6382H31.3752H31.1129H30.8512H30.5902H30.3299H30.0702H29.8112H29.5529H29.2952H29.0383H28.7821H28.5265H28.2717H28.0176H27.7643H27.5116H27.2597H27.0086H26.7582H26.5173C50.0233 42.1312 64.0409 33.2127 74.6729 24.2651C77.7544 21.6718 80.5496 19.078 83.1916 16.6264C83.5617 16.283 83.9288 15.9423 84.2932 15.6048C87.2685 12.8499 90.064 10.3106 92.9269 8.1407C98.6244 3.82221 104.545 1 112.5 1C120.041 1 125.758 3.81199 131.39 8.13688C134.219 10.3088 137.009 12.8497 140.002 15.6066C140.228 15.8148 140.456 16.0242 140.684 16.2347C143.47 18.8033 146.435 21.5362 149.73 24.2696Z" fill="#7C11AE" stroke="#7F0DB5" stroke-width="2"/>
</svg>
