<?xml version="1.0" encoding="UTF-8"?><svg id="Layer_1" xmlns="http://www.w3.org/2000/svg" viewBox="0 0 500 500"><defs><style>.cls-1{fill:#a06dc1;}</style></defs><path class="cls-1" d="M306.21,234.02c33.6-19.72,55.86-56.79,54.3-98.81-2.18-58.81-51.17-105.74-110.02-105.54-61.29,.2-111.09,49.33-111.09,109.69,0,40.19,22.09,75.39,54.93,94.5-80.38,25.84-140.61,106.17-146.81,202.98-.56,8.72,6.41,16.1,15.15,16.11h0c8.03,.02,14.68-6.22,15.19-14.24,6.57-102.25,81.33-183.19,172.14-183.19s165.54,80.94,172.11,183.19c.51,8.02,7.16,14.25,15.19,14.24h0c8.74-.02,15.71-7.39,15.15-16.11-6.18-96.59-66.15-176.78-146.26-202.8Zm-136.4-94.67c0-43.71,36.37-79.28,81.06-79.28s79.31,34.83,79.31,79.28-34.83,79.31-79.31,79.31-81.06-35.57-81.06-79.31Z"/></svg>