<?xml version="1.0" encoding="UTF-8"?><svg id="Layer_1" xmlns="http://www.w3.org/2000/svg" viewBox="0 0 500 500"><defs><style>.cls-1{fill:#a06dc1;}</style></defs><path class="cls-1" d="M258.08,468.02c-35.26,0-70.21-8.66-101.39-25.08l-116.66,15.78c-4.65,.57-9.16-1.04-12.3-4.4-3.15-3.37-4.45-8.06-3.53-12.57l26.16-125.96c-6.84-21.51-10.3-43.62-10.3-65.78,0-120.23,97.8-218.03,218.01-218.03s218.01,97.8,218.01,218.03-97.8,218.01-218.01,218.01Zm-98.84-54.1c2.32,0,4.66,.58,6.81,1.78,28.08,15.64,59.9,23.9,92.03,23.9,104.54,0,189.59-85.05,189.59-189.59S362.62,60.4,258.08,60.4,68.49,145.46,68.49,250.01c0,20.51,3.43,41.01,10.2,60.92,1.15,3.41,.94,7.04-.4,10.17l-22.16,106.75,99.41-13.43c1.21-.33,2.46-.5,3.71-.5Z"/><path class="cls-1" d="M354.77,239.74H165.03c-7.86,0-14.21-6.36-14.21-14.21s6.36-14.21,14.21-14.21h189.74c7.86,0,14.21,6.36,14.21,14.21s-6.36,14.21-14.21,14.21Z"/><path class="cls-1" d="M354.77,303.49H165.03c-7.86,0-14.21-6.36-14.21-14.21s6.36-14.21,14.21-14.21h189.74c7.86,0,14.21,6.36,14.21,14.21s-6.36,14.21-14.21,14.21Z"/></svg>