<svg width="21" height="21" viewBox="0 0 21 21" fill="none" xmlns="http://www.w3.org/2000/svg">
    <path d="M5.93096 16.6492L5.14453 17.6195C5.93006 18.2876 6.82756 18.8115 7.79556 19.167L8.23316 17.981C7.39354 17.6756 6.61424 17.2248 5.93096 16.6492Z" fill="#0D0D0D"/>
    <path d="M3.36218 12.1211L2.09375 12.3811C2.27463 13.4057 2.63307 14.3909 3.15289 15.2922L4.25009 14.658C3.8112 13.8693 3.51087 13.0113 3.36218 12.1211Z" fill="#0D0D0D"/>
    <path d="M8.20145 3.72383L7.76384 2.53784C6.80704 2.89669 5.92052 3.42044 5.14453 4.08533L5.93096 5.05568C6.60469 4.48322 7.37301 4.03253 8.20145 3.72383Z" fill="#0D0D0D"/>
    <path d="M4.25059 7.0473L3.1534 6.41309C2.64345 7.31713 2.29169 8.30164 2.11328 9.32414L3.38171 9.53977C3.52458 8.66484 3.81859 7.82144 4.25059 7.0473Z" fill="#0D0D0D"/>
    <path d="M10.8525 1.97363V3.24207C12.871 3.24207 14.8068 4.04389 16.234 5.47116C17.6613 6.89842 18.4631 8.83421 18.4631 10.8527C18.4631 12.8711 17.6613 14.8069 16.234 16.2342C14.8068 17.6614 12.871 18.4633 10.8525 18.4633V19.7317C13.2074 19.7317 15.4658 18.7962 17.131 17.1311C18.7961 15.4659 19.7316 13.2075 19.7316 10.8527C19.7316 8.4978 18.7961 6.23938 17.131 4.57424C15.4658 2.9091 13.2074 1.97363 10.8525 1.97363Z" fill="#0D0D0D"/>
</svg>